<svg id="Layer_3_copy" data-name="Layer 3 copy" xmlns="http://www.w3.org/2000/svg" viewBox="0 0 246.76 48.88"><defs><style>.cls-1{fill:#b93900;}.cls-2{fill:#f03;}.cls-2,.cls-3{fill-rule:evenodd;}.cls-3{fill:#00a6ff;}</style></defs><path class="cls-1" d="M34.93,37.46H28.59V28.88H6.33v8.58H0V20a18.35,18.35,0,0,1,1.32-7A16.22,16.22,0,0,1,5,7.43,16.66,16.66,0,0,1,10.5,3.82a18.38,18.38,0,0,1,7-1.29H31.73a3.16,3.16,0,0,1,2.95,2,3.27,3.27,0,0,1,.25,1.24ZM6.33,22.55H28.59V8.87H17.46c-.19,0-.6,0-1.23.08a12.7,12.7,0,0,0-2.17.43,13.34,13.34,0,0,0-2.59,1A9.16,9.16,0,0,0,9,12.37a10,10,0,0,0-1.88,3.11A12.11,12.11,0,0,0,6.33,20Z"/><path class="cls-1" d="M69.75,19.85a9.76,9.76,0,0,1-.46,2.84,8.55,8.55,0,0,1-1.5,2.82,8.28,8.28,0,0,1-2.7,2.18,8.55,8.55,0,0,1-4.06.88H49.61v-6H61a2.53,2.53,0,0,0,2-.79,2.85,2.85,0,0,0,.71-2A2.5,2.5,0,0,0,63,17.85a2.79,2.79,0,0,0-1.92-.7H49.61a2.55,2.55,0,0,0-2,.79,2.82,2.82,0,0,0-.7,2v8.84a2.5,2.5,0,0,0,.79,2,2.85,2.85,0,0,0,2,.71H61v6H49.61A10.11,10.11,0,0,1,46.77,37,8.55,8.55,0,0,1,44,35.5a8.22,8.22,0,0,1-2.18-2.71,8.53,8.53,0,0,1-.88-4.05V19.85A9.79,9.79,0,0,1,41.36,17a8.34,8.34,0,0,1,1.49-2.82A8.22,8.22,0,0,1,45.56,12a8.53,8.53,0,0,1,4-.88H61a9.71,9.71,0,0,1,2.84.46,8.31,8.31,0,0,1,5,4.2A8.73,8.73,0,0,1,69.75,19.85Z"/><path class="cls-1" d="M97.06,17.46H82.81a2.68,2.68,0,0,0-2,.65A2.53,2.53,0,0,0,80.2,20V37.46H73.87V20a9.78,9.78,0,0,1,.41-2.93,8.42,8.42,0,0,1,1.11-2.27A7.54,7.54,0,0,1,77,13.12,9,9,0,0,1,78.87,12a10.1,10.1,0,0,1,2-.64,9.26,9.26,0,0,1,1.89-.21h14.3Z"/><path class="cls-1" d="M178.68,27.18a11.34,11.34,0,0,1-.47,3.37A10.32,10.32,0,0,1,177,33.2a8.43,8.43,0,0,1-1.82,1.94,10.82,10.82,0,0,1-4.45,2.07,10.13,10.13,0,0,1-2.18.25H144.07V31.13H168.5a3.69,3.69,0,0,0,2.84-1.08,4,4,0,0,0,1-2.87,4.65,4.65,0,0,0-.27-1.61,3.73,3.73,0,0,0-.76-1.26,3.35,3.35,0,0,0-1.22-.83,4.11,4.11,0,0,0-1.6-.29H153.94a11.45,11.45,0,0,1-3.31-.55,10,10,0,0,1-3.3-1.77,9.59,9.59,0,0,1-2.54-3.19,10.51,10.51,0,0,1-1-4.82,10.46,10.46,0,0,1,1-4.81,9.76,9.76,0,0,1,5.84-5,11.45,11.45,0,0,1,3.31-.55h21.55V8.87H153.94A3.62,3.62,0,0,0,151.13,10a4.09,4.09,0,0,0-1,2.9,4,4,0,0,0,1,2.89,3.71,3.71,0,0,0,2.81,1.05h14.61A11,11,0,0,1,173,17.88a10.44,10.44,0,0,1,2.15,1.35,9.23,9.23,0,0,1,1.82,2,9.85,9.85,0,0,1,1.25,2.63A11.24,11.24,0,0,1,178.68,27.18Z"/><path class="cls-1" d="M189.67,37.46h-6.34V0h6.34Zm24.5,0H205L192.27,25.13a3,3,0,0,1-1-2.43,3.31,3.31,0,0,1,.36-1.28,2.92,2.92,0,0,1,.84-1L204,11.08h10.13l-14.91,12Z"/><path class="cls-1" d="M237.89,37.46H226.47a10.46,10.46,0,0,1-2.91-.46,8.58,8.58,0,0,1-2.89-1.53,8.21,8.21,0,0,1-2.21-2.75,8.87,8.87,0,0,1-.88-4.15V11.13h6.33V28.57a2.57,2.57,0,0,0,.66,1.9,2.64,2.64,0,0,0,2,.66h11.37ZM246.76,40a9.57,9.57,0,0,1-.42,2.94,8.45,8.45,0,0,1-1.09,2.28,7.77,7.77,0,0,1-1.59,1.69,9.33,9.33,0,0,1-3.87,1.77,9.28,9.28,0,0,1-1.9.21H226.47V42.55h11.42a2.52,2.52,0,0,0,1.9-.66,2.64,2.64,0,0,0,.63-1.9V11.13h6.34Z"/><path class="cls-2" d="M99.26,19.65a21.42,21.42,0,1,0,42.41-1.84q0,.95-.09,1.92a20.72,20.72,0,1,1-41.27-3.83c.06-.64.15-1.28.26-1.9a21.86,21.86,0,0,0-1.31,5.65"/><path class="cls-2" d="M127.1,3.07a17.16,17.16,0,1,0-9.66,32.61c-.48-.17-1-.36-1.43-.57A16.6,16.6,0,0,1,129.67,4.84c.48.21.93.45,1.38.7a17.1,17.1,0,0,0-4-2.47"/><path class="cls-3" d="M118.3,22.83l1.22,5,.5-4.18,18.61-15.9ZM140.68,5.7l-8.86,23.81-8-3.94h0l-4.48,3.7-1.78-6.79-7.5-3.7Z"/></svg>